# xmcd
#
# Track frame offsets: 
#        150
#        13204
#        25619
#        39951
#        46603
#        60679
#        69912
#        79713
#        92692
#        106948
#        119390
#        130433
#        147080
#        167883
#        179779
#
# Disc length: 2568 seconds
#
# Revision: 2
# Processed by: cddbd v1.5.2PL0 Copyright (c) Steve Scherf et al.
# Submitted via: ExactAudioCopy v0.95b4
#
DISCID=c30a060f
DTITLE=Hagaw - The Jazz Band Jeunesses Musicales De Pologne "Pro Music
DTITLE=a"
DYEAR=1967
DGENRE=Jazz
TTITLE0=Czy Pani Kocha Hagaw - Do You Love Hagaw?
TTITLE1=Meloniki Na Goraco - Hot Melons
TTITLE2=Wesola Piosneczka - A Gay Song
TTITLE3=Bardzo Szkoda Mi Zajaczka - I Pity The Poor Bunny
TTITLE4=Pamietnik Pewnego Impertynenta - An Upstart's Memoirs
TTITLE5=Taniec Z Czasow Gornego - A Dance From Gorny's Time
TTITLE6=Tulaczka Wija Drewniaka - The Wandering Centipede
TTITLE7=Chlapu, Chlapu - Flop, ... Flop
TTITLE8=Bede Gangsterem - I'll Be A Gangster
TTITLE9=Oj - Biada! - Bad Luck
TTITLE10=Swawole Lokomotyw, Czyli Wspomnienie Pomocnika Maszynistki - 
TTITLE10=Locomotive Frolics
TTITLE11=Koty Na Poddaszu - Cats In The Garret
TTITLE12=Byc Moze... - And Maybe Tears
TTITLE13=Mowilas, Ze Lubisz Kije Samobije - You Said You Like Fairy Ta
TTITLE13=les
TTITLE14=Zachcialo Ci Sie Grzesiu Prac O Tej Porze - It Isn't Time To 
TTITLE14=Wash, Gregory
EXTD=YEAR: 1967
EXTT0=
EXTT1=
EXTT2=
EXTT3=
EXTT4=
EXTT5=
EXTT6=
EXTT7=
EXTT8=
EXTT9=
EXTT10=
EXTT11=
EXTT12=
EXTT13=
EXTT14=
PLAYORDER=
